<svg id="Capa_1" enable-background="new 0 0 512 512" height="512" viewBox="0 0 512 512" width="512" xmlns="http://www.w3.org/2000/svg"><g><g><g><g><path d="m163.065 447.931h185.87v32.325h-185.87z" fill="#a2aae2"/></g><g><path d="m324.691 447.931h24.244v32.325h-24.244z" fill="#8993da"/></g><g><path d="m484.297 383.28h-456.594c-11.158 0-20.203-9.045-20.203-20.203v-311.13c0-11.158 9.045-20.203 20.203-20.203h456.593c11.158 0 20.203 9.045 20.203 20.203v311.13c.001 11.158-9.044 20.203-20.202 20.203z" fill="#a2aae2"/></g><g><path d="m484.297 31.744h-23.234c11.158 0 20.203 9.045 20.203 20.203v311.13c0 11.158-9.045 20.203-20.203 20.203h23.234c11.158 0 20.203-9.045 20.203-20.203v-311.13c0-11.158-9.045-20.203-20.203-20.203z" fill="#8993da"/></g><g><path d="m112.557-8.663h286.886v432.349h-286.886z" fill="#d3effb" transform="matrix(0 1 -1 0 463.512 -48.488)"/></g><g><path d="m316.61 195.39h286.886v24.244h-286.886z" fill="#b1e4f9" transform="matrix(0 1 -1 0 667.565 -252.541)"/></g><g><path d="m324.691 447.931-10.102-64.651h-117.178l-10.102 64.651z" fill="#707dd3"/></g><g><path d="m317.746 403.484-3.157-20.204h-117.178l-3.157 20.204z" fill="#5766cb"/></g></g></g><g><path d="m412.575 198.85c4.142 0 7.5-3.358 7.5-7.5v-72.732c0-4.142-3.358-7.5-7.5-7.5h-15.152c-4.142 0-7.5 3.358-7.5 7.5s3.358 7.5 7.5 7.5h7.652v65.232c0 4.142 3.358 7.5 7.5 7.5z"/><path d="m219.634 198.85c4.142 0 7.5-3.358 7.5-7.5v-72.732c0-4.142-3.358-7.5-7.5-7.5h-15.152c-4.142 0-7.5 3.358-7.5 7.5s3.358 7.5 7.5 7.5h7.652v65.232c0 4.142 3.358 7.5 7.5 7.5z"/><path d="m372.602 138.825c0-15.278-12.43-27.708-27.708-27.708s-27.707 12.43-27.707 27.708v32.317c0 15.278 12.429 27.708 27.707 27.708s27.708-12.43 27.708-27.708zm-15 32.317c0 7.007-5.701 12.708-12.708 12.708s-12.707-5.701-12.707-12.708v-32.317c0-7.007 5.7-12.708 12.707-12.708s12.708 5.701 12.708 12.708z"/><path d="m272.163 111.118c-15.278 0-27.708 12.43-27.708 27.708v32.317c0 15.278 12.43 27.708 27.708 27.708s27.708-12.43 27.708-27.708v-32.317c-.001-15.279-12.431-27.708-27.708-27.708zm12.707 60.024c0 7.007-5.701 12.708-12.708 12.708s-12.708-5.701-12.708-12.708v-32.317c0-7.007 5.701-12.708 12.708-12.708s12.708 5.701 12.708 12.708z"/><path d="m99.425 111.118h-15.153c-4.142 0-7.5 3.358-7.5 7.5s3.358 7.5 7.5 7.5h7.652v65.232c0 4.142 3.358 7.5 7.5 7.5s7.5-3.358 7.5-7.5v-72.732c.001-4.142-3.357-7.5-7.499-7.5z"/><path d="m179.661 138.825c0-15.278-12.43-27.708-27.708-27.708s-27.708 12.43-27.708 27.708v32.317c0 15.278 12.43 27.708 27.708 27.708s27.708-12.43 27.708-27.708zm-15 32.317c0 7.007-5.701 12.708-12.708 12.708s-12.708-5.701-12.708-12.708v-32.317c0-7.007 5.701-12.708 12.708-12.708s12.708 5.701 12.708 12.708z"/><path d="m360.042 303.907c4.142 0 7.5-3.358 7.5-7.5v-72.732c0-4.142-3.358-7.5-7.5-7.5h-15.152c-4.142 0-7.5 3.358-7.5 7.5s3.358 7.5 7.5 7.5h7.652v65.232c0 4.142 3.358 7.5 7.5 7.5z"/><path d="m167.102 303.907c4.142 0 7.5-3.358 7.5-7.5v-72.732c0-4.142-3.358-7.5-7.5-7.5h-15.152c-4.142 0-7.5 3.358-7.5 7.5s3.358 7.5 7.5 7.5h7.652v65.232c0 4.142 3.357 7.5 7.5 7.5z"/><path d="m292.366 216.175c-15.278 0-27.708 12.43-27.708 27.708v32.317c0 15.278 12.43 27.708 27.708 27.708s27.708-12.43 27.708-27.708v-32.317c-.001-15.279-12.43-27.708-27.708-27.708zm12.707 60.024c0 7.007-5.701 12.708-12.708 12.708s-12.708-5.701-12.708-12.708v-32.317c0-7.007 5.701-12.708 12.708-12.708s12.708 5.701 12.708 12.708z"/><path d="m191.918 276.199c0 15.278 12.43 27.708 27.708 27.708s27.708-12.43 27.708-27.708v-32.317c0-15.278-12.43-27.708-27.708-27.708s-27.708 12.43-27.708 27.708zm15-32.317c0-7.007 5.701-12.708 12.708-12.708s12.708 5.701 12.708 12.708v32.317c0 7.007-5.701 12.708-12.708 12.708s-12.708-5.701-12.708-12.708z"/><path d="m99.425 216.175c-15.278 0-27.708 12.43-27.708 27.708v32.317c0 15.278 12.43 27.708 27.708 27.708s27.708-12.43 27.708-27.708v-32.317c-.001-15.279-12.43-27.708-27.708-27.708zm12.707 60.024c0 7.007-5.701 12.708-12.708 12.708s-12.708-5.701-12.708-12.708v-32.317c0-7.007 5.701-12.708 12.708-12.708s12.708 5.701 12.708 12.708z"/><path d="m384.868 276.199c0 15.278 12.43 27.708 27.708 27.708s27.708-12.43 27.708-27.708v-32.317c0-15.278-12.43-27.708-27.708-27.708s-27.708 12.43-27.708 27.708zm15-32.317c0-7.007 5.701-12.708 12.708-12.708s12.708 5.701 12.708 12.708v32.317c0 7.007-5.701 12.708-12.708 12.708s-12.708-5.701-12.708-12.708z"/><path d="m70.81 56.57h-30.98c-4.142 0-7.5 3.358-7.5 7.5v286.89c0 4.142 3.358 7.5 7.5 7.5h432.34c4.142 0 7.5-3.358 7.5-7.5v-286.89c0-4.142-3.358-7.5-7.5-7.5h-366.36c-4.142 0-7.5 3.358-7.5 7.5s3.358 7.5 7.5 7.5h358.86v271.89h-417.34v-271.89h23.48c4.142 0 7.5-3.358 7.5-7.5s-3.358-7.5-7.5-7.5z"/><path d="m484.3 24.24h-456.6c-15.274 0-27.7 12.431-27.7 27.71v311.13c0 15.274 12.426 27.7 27.7 27.7h160.948l-7.758 49.65h-17.82c-4.142 0-7.5 3.358-7.5 7.5v32.33c0 4.142 3.358 7.5 7.5 7.5h185.86c4.142 0 7.5-3.358 7.5-7.5v-32.33c0-4.142-3.358-7.5-7.5-7.5h-17.82l-7.758-49.65h77.218c4.142 0 7.5-3.358 7.5-7.5s-3.358-7.5-7.5-7.5h-372.87c-7.003 0-12.7-5.697-12.7-12.7v-311.13c0-7.008 5.697-12.71 12.7-12.71h456.6c7.003 0 12.7 5.702 12.7 12.71v311.13c0 7.002-5.697 12.7-12.7 12.7h-48.73c-4.142 0-7.5 3.358-7.5 7.5s3.358 7.5 7.5 7.5h48.73c15.274 0 27.7-12.426 27.7-27.7v-311.13c0-15.279-12.426-27.71-27.7-27.71zm-168.372 416.19h-13.138c-4.142 0-7.5 3.358-7.5 7.5s3.358 7.5 7.5 7.5h38.64v17.33h-170.86v-17.33h97.22c4.142 0 7.5-3.358 7.5-7.5s-3.358-7.5-7.5-7.5h-71.718l7.758-49.65h104.34z"/></g></g></svg>